<mxfile host="www.draw.io" modified="2019-11-23T09:40:18.991Z" agent="Mozilla/5.0 (Macintosh; Intel Mac OS X 10_14_6) AppleWebKit/537.36 (KHTML, like Gecko) Chrome/78.0.3904.97 Safari/537.36" etag="5hM0J-C4nTH1rNrqPffo" version="12.2.9" type="github" pages="1">
  <diagram id="6Ip7Jcb1CXOhrE7s4EJQ" name="Page-1">
    <mxGraphModel dx="1177" dy="583" grid="1" gridSize="2" guides="1" tooltips="1" connect="1" arrows="1" fold="1" page="1" pageScale="1" pageWidth="827" pageHeight="1169" math="0" shadow="0">
      <root>
        <mxCell id="0"/>
        <mxCell id="1" parent="0"/>
        <mxCell id="QyFavTRNq2I5qCak9iw_-1" value="&lt;font style=&quot;font-size: 20px&quot;&gt;Axios Interceptor 拦截器执行流程&lt;/font&gt;" style="text;html=1;align=center;verticalAlign=middle;resizable=0;points=[];;autosize=1;" vertex="1" parent="1">
          <mxGeometry x="259" y="64" width="308" height="22" as="geometry"/>
        </mxCell>
        <mxCell id="QyFavTRNq2I5qCak9iw_-2" value="request&lt;br&gt;interceptor-2" style="rounded=1;whiteSpace=wrap;html=1;fillColor=#dae8fc;strokeColor=#6c8ebf;" vertex="1" parent="1">
          <mxGeometry x="34" y="115" width="80" height="40" as="geometry"/>
        </mxCell>
        <mxCell id="QyFavTRNq2I5qCak9iw_-3" value="request&lt;br&gt;interceptor-1" style="rounded=1;whiteSpace=wrap;html=1;fillColor=#dae8fc;strokeColor=#6c8ebf;" vertex="1" parent="1">
          <mxGeometry x="170.5" y="115" width="80" height="40" as="geometry"/>
        </mxCell>
        <mxCell id="QyFavTRNq2I5qCak9iw_-4" value="send&lt;br&gt;request" style="rounded=0;whiteSpace=wrap;html=1;fillColor=#008a00;strokeColor=#005700;fontColor=#ffffff;" vertex="1" parent="1">
          <mxGeometry x="307" y="100" width="90" height="70" as="geometry"/>
        </mxCell>
        <mxCell id="QyFavTRNq2I5qCak9iw_-5" value="request&lt;br&gt;interceptor-2" style="rounded=1;whiteSpace=wrap;html=1;fillColor=#d5e8d4;strokeColor=#82b366;" vertex="1" parent="1">
          <mxGeometry x="445.5" y="110" width="80" height="40" as="geometry"/>
        </mxCell>
        <mxCell id="QyFavTRNq2I5qCak9iw_-6" value="request&lt;br&gt;interceptor-1" style="rounded=1;whiteSpace=wrap;html=1;fillColor=#d5e8d4;strokeColor=#82b366;" vertex="1" parent="1">
          <mxGeometry x="574" y="110" width="80" height="40" as="geometry"/>
        </mxCell>
        <mxCell id="QyFavTRNq2I5qCak9iw_-8" value="handle&lt;br&gt;response" style="rounded=0;whiteSpace=wrap;html=1;fillColor=#1ba1e2;strokeColor=#006EAF;fontColor=#ffffff;" vertex="1" parent="1">
          <mxGeometry x="725.5" y="100" width="90" height="70" as="geometry"/>
        </mxCell>
        <mxCell id="QyFavTRNq2I5qCak9iw_-9" value="" style="shape=flexArrow;endArrow=classic;html=1;width=4.093023255813954;endSize=3.4809302325581397;endWidth=7.186587344510546;fillColor=#1ba1e2;strokeColor=#006EAF;" edge="1" parent="1">
          <mxGeometry width="50" height="50" relative="1" as="geometry">
            <mxPoint x="122.5" y="135" as="sourcePoint"/>
            <mxPoint x="162.5" y="135" as="targetPoint"/>
          </mxGeometry>
        </mxCell>
        <mxCell id="QyFavTRNq2I5qCak9iw_-10" value="" style="shape=flexArrow;endArrow=classic;html=1;width=4.093023255813954;endSize=3.4809302325581397;endWidth=7.186587344510546;fillColor=#1ba1e2;strokeColor=#006EAF;" edge="1" parent="1">
          <mxGeometry width="50" height="50" relative="1" as="geometry">
            <mxPoint x="259" y="134" as="sourcePoint"/>
            <mxPoint x="299" y="134" as="targetPoint"/>
          </mxGeometry>
        </mxCell>
        <mxCell id="QyFavTRNq2I5qCak9iw_-11" value="" style="shape=flexArrow;endArrow=classic;html=1;width=4.093023255813954;endSize=3.4809302325581397;endWidth=7.186587344510546;fillColor=#1ba1e2;strokeColor=#006EAF;" edge="1" parent="1">
          <mxGeometry width="50" height="50" relative="1" as="geometry">
            <mxPoint x="401.5" y="130" as="sourcePoint"/>
            <mxPoint x="441.5" y="130" as="targetPoint"/>
          </mxGeometry>
        </mxCell>
        <mxCell id="QyFavTRNq2I5qCak9iw_-12" value="" style="shape=flexArrow;endArrow=classic;html=1;width=4.093023255813954;endSize=3.4809302325581397;endWidth=7.186587344510546;fillColor=#1ba1e2;strokeColor=#006EAF;" edge="1" parent="1">
          <mxGeometry width="50" height="50" relative="1" as="geometry">
            <mxPoint x="530" y="130" as="sourcePoint"/>
            <mxPoint x="570" y="130" as="targetPoint"/>
          </mxGeometry>
        </mxCell>
        <mxCell id="QyFavTRNq2I5qCak9iw_-13" value="" style="shape=flexArrow;endArrow=classic;html=1;width=4.093023255813954;endSize=3.4809302325581397;endWidth=7.186587344510546;fillColor=#1ba1e2;strokeColor=#006EAF;" edge="1" parent="1">
          <mxGeometry width="50" height="50" relative="1" as="geometry">
            <mxPoint x="658.5" y="134" as="sourcePoint"/>
            <mxPoint x="698.5" y="134" as="targetPoint"/>
          </mxGeometry>
        </mxCell>
        <mxCell id="QyFavTRNq2I5qCak9iw_-14" value="&lt;font style=&quot;font-size: 18px&quot;&gt;...&lt;/font&gt;" style="text;html=1;align=center;verticalAlign=middle;resizable=0;points=[];;autosize=1;" vertex="1" parent="1">
          <mxGeometry x="695.5" y="118" width="30" height="20" as="geometry"/>
        </mxCell>
        <mxCell id="QyFavTRNq2I5qCak9iw_-15" value="&lt;font style=&quot;font-size: 18px&quot;&gt;...&lt;/font&gt;" style="text;html=1;align=center;verticalAlign=middle;resizable=0;points=[];;autosize=1;" vertex="1" parent="1">
          <mxGeometry x="4" y="120" width="30" height="20" as="geometry"/>
        </mxCell>
      </root>
    </mxGraphModel>
  </diagram>
</mxfile>
